<?xml version="1.0" standalone="no"?>
<!DOCTYPE svg PUBLIC "-//W3C//DTD SVG 20010904//EN"
 "http://www.w3.org/TR/2001/REC-SVG-20010904/DTD/svg10.dtd">
<svg version="1.0" xmlns="http://www.w3.org/2000/svg"
 width="512.000000pt" height="512.000000pt" viewBox="0 0 512.000000 512.000000"
 preserveAspectRatio="xMidYMid meet">

<g transform="translate(0.000000,512.000000) scale(0.100000,-0.100000)"
fill="#000000" stroke="none">
<path d="M2220 4689 c-453 -52 -881 -260 -1205 -584 -794 -794 -794 -2075 1
-2871 328 -329 764 -535 1234 -584 486 -50 1011 94 1400 384 l75 56 315 -315
c210 -209 327 -319 352 -330 136 -56 286 32 296 174 8 108 9 106 -339 456
l-319 320 55 74 c336 452 466 1042 354 1600 -175 869 -890 1524 -1771 1620
-112 13 -339 12 -448 0z m367 -429 c218 -19 388 -68 593 -172 433 -218 732
-611 842 -1105 19 -84 22 -129 22 -313 1 -186 -2 -229 -22 -317 -73 -332 -207
-579 -441 -814 -233 -233 -487 -371 -811 -441 -91 -19 -134 -22 -320 -22 -240
0 -314 11 -515 78 -521 175 -927 630 -1045 1174 -75 346 -31 711 125 1037 237
496 734 841 1285 894 122 12 162 12 287 1z"/>
</g>
</svg>
